<?xml version="1.0" encoding="utf-8"?>
<!-- Generator: Adobe Illustrator 25.2.1, SVG Export Plug-In . SVG Version: 6.00 Build 0)  -->
<svg version="1.1" id="Layer_1" xmlns="http://www.w3.org/2000/svg" xmlns:xlink="http://www.w3.org/1999/xlink" x="0px" y="0px"
	 viewBox="0 0 32 32" style="enable-background:new 0 0 32 32;" xml:space="preserve">
<style type="text/css">
	.st0{fill:#7C98B6;}
</style>
<g>
	<path class="st0" d="M26.3,21L26.3,21c-1.2-1.4-2.8-2.6-4.6-3.4h-0.1l0,0c-1.2,1.9-3.2,3.1-5.6,3.2l0,0c-2.3-0.1-4.3-1.4-5.6-3.2
		l0,0c-1.8,0.9-3.3,2-4.6,3.4l0,0c-0.3,0.4-0.6,0.9-0.6,1.4c0,0.5,0.2,1,0.5,1.4l0,0c2.5,2.8,6.2,4.7,10.2,4.7s7.7-1.8,10.1-4.6l0,0
		c0.3-0.4,0.5-0.9,0.5-1.4C26.8,21.9,26.6,21.4,26.3,21z"/>
	<path class="st0" d="M16,19.2L16,19.2L16,19.2c1.6-0.1,3-0.9,3.8-2.1l0,0c1.4-2,2.2-4.3,2.2-7c0-0.1,0-0.2,0-0.4l0,0
		c0-3.4-2.7-6.2-6.2-6.2s-6,2.6-6,6c0,0.1,0,0.2,0,0.4c0,2.6,0.9,5.1,2.3,7.1C13.1,18.2,14.5,19,16,19.2z"/>
	<path class="st0" d="M12.2,17.1C12.2,17.1,12.2,17.1,12.2,17.1C12.2,17.1,12.2,17.1,12.2,17.1L12.2,17.1z"/>
</g>
</svg>
